<svg xmlns="http://www.w3.org/2000/svg" viewBox="0 0 1110.06 235.8"><g id="Camada_2" data-name="Camada 2"><g id="Camada_1-2" data-name="Camada 1"><polygon points="55.26 10.92 0 10.92 0 235.8 139.1 235.8 139.1 184.08 55.26 184.08 55.26 10.92"/><rect x="166.42" y="72.92" width="52.04" height="162.87"/><path d="M192.44,0a27.47,27.47,0,1,0,27.31,27.31A27.29,27.29,0,0,0,192.44,0Z"/><path d="M511.08,72.92H452.61l-42.36,64v-3c0-32.77-19.27-64.89-59.75-64.89-21.21,0-35.34,8.35-44.66,19V72.92h-52V235.8h52V148.1c0-18,10.93-27.95,26-27.95,14.45,0,26,9.31,26,27.95v87.7h52.36V167.71l44,68.09h61L456.79,150Z"/><polygon points="528.12 62.96 580.8 62.96 580.8 235.8 635.74 235.8 635.74 62.96 688.42 62.96 688.42 10.92 528.12 10.92 528.12 62.96"/><path d="M761.36,97.66V72.92H709.31V235.8h52.05V171.55c0-27.31,5.14-53.65,51.4-46.58V69.07A62,62,0,0,0,761.36,97.66Z"/><path d="M1108.82,134.41a85.68,85.68,0,0,0-4.12-15.87,77.24,77.24,0,0,0-25.25-34.79c-15.59-12.18-36.49-19.09-61-19.09-19.28,0-36.09,5.19-49.27,13.81a79.68,79.68,0,0,1,8.55,8.09,81.34,81.34,0,0,1,11,15.39A86.93,86.93,0,0,1,994,113.43a46.64,46.64,0,0,1,24.45-6.66c.7,0,1.4,0,2.09,0,18.92.58,33.46,9.31,38.73,27.6h-66q-.46-3.07-1.11-6c-.36-1.71-.78-3.39-1.24-5q-.88-3.27-2-6.33a81.2,81.2,0,0,0-4.43-10.21,74.12,74.12,0,0,0-20.44-24.74c-1.64-1.29-3.33-2.49-5.07-3.62-14.13-9.26-31.29-13.81-49.25-13.81-46.6,0-84.21,37.29-84.21,85.5,0,50.78,36.65,85.5,91.61,85.5,19.29,0,36.09-5.19,49.27-13.81a78.79,78.79,0,0,1-8.55-8.1,83,83,0,0,1-16.27-26.86,46.64,46.64,0,0,1-24.45,6.66c-19.93,0-35.36-8.68-40.82-27.64h66c.31,2.05.68,4.06,1.11,6q.55,2.58,1.24,5,.89,3.25,2,6.32a75.76,75.76,0,0,0,24.87,34.95c1.64,1.29,3.33,2.49,5.07,3.62,14.13,9.26,31.29,13.81,49.25,13.81a83.46,83.46,0,0,0,57.3-22.47,84.42,84.42,0,0,0,24.49-42.25l1-5a89.22,89.22,0,0,0,1.38-15.74A98.27,98.27,0,0,0,1108.82,134.41Zm-232.48,0c4.82-18,18.65-27.65,35-27.65,16,0,28.4,6.85,33.68,21.64a42.18,42.18,0,0,1,1.67,6Zm147.89,59.15c-16,0-28.4-6.85-33.68-21.64a41.81,41.81,0,0,1-1.67-6H1060C1055.19,183.91,1040.62,193.56,1024.23,193.56Z"/></g></g></svg>